<svg width="341" height="67" viewBox="0 0 341 67" fill="none" xmlns="http://www.w3.org/2000/svg">
<path d="M22.1062 66.152C16.5382 66.152 11.6742 64.84 7.51417 62.216C4.83535 60.4581 2.70402 58.3032 1.12019 55.7513C-0.340185 53.3984 0.943429 50.4677 3.44039 49.2702C6.20493 47.9443 9.4365 49.2532 11.4988 51.522C12.2682 52.3686 13.1161 53.1172 14.0422 53.768C16.4742 55.432 19.1622 56.264 22.1062 56.264C24.4102 56.264 26.2342 55.752 27.5782 54.728C28.9222 53.704 29.5942 52.36 29.5942 50.696C29.5942 49.672 29.3062 48.84 28.7302 48.2C28.2182 47.496 27.4822 46.92 26.5222 46.472C25.6262 45.96 24.6342 45.544 23.5462 45.224L15.0022 42.824C10.5862 41.544 7.22617 39.592 4.92217 36.968C2.68217 34.344 1.56217 31.24 1.56217 27.656C1.56217 24.456 2.36217 21.672 3.96217 19.304C5.62617 16.872 7.89817 14.984 10.7782 13.64C13.7222 12.296 17.0822 11.624 20.8582 11.624C25.7862 11.624 30.1382 12.808 33.9142 15.176C36.3017 16.6733 38.2543 18.5544 39.7718 20.8192C41.307 23.1103 40.0573 26.0628 37.5614 27.2359C34.7662 28.5496 31.4879 27.0373 29.1654 25.0014C28.7614 24.6473 28.3284 24.3162 27.8662 24.008C25.7542 22.6 23.3862 21.896 20.7622 21.896C18.6502 21.896 16.9862 22.376 15.7702 23.336C14.5542 24.296 13.9462 25.544 13.9462 27.08C13.9462 28.04 14.2022 28.872 14.7142 29.576C15.2262 30.28 15.9302 30.856 16.8262 31.304C17.7862 31.752 18.8742 32.168 20.0902 32.552L28.4422 35.048C32.7302 36.328 36.0262 38.248 38.3302 40.808C40.6982 43.368 41.8822 46.504 41.8822 50.216C41.8822 53.352 41.0502 56.136 39.3862 58.568C37.7222 60.936 35.4182 62.792 32.4742 64.136C29.5302 65.48 26.0742 66.152 22.1062 66.152Z" fill="white"/>
<path d="M106.67 66.152C101.55 66.152 96.8782 64.968 92.6542 62.6C88.4942 60.232 85.1662 57 82.6702 52.904C80.2382 48.808 79.0222 44.136 79.0222 38.888C79.0222 33.64 80.2382 28.968 82.6702 24.872C85.1662 20.776 88.4942 17.544 92.6542 15.176C96.8142 12.808 101.486 11.624 106.67 11.624C111.79 11.624 116.43 12.808 120.59 15.176C124.75 17.544 128.046 20.776 130.478 24.872C132.974 28.904 134.222 33.576 134.222 38.888C134.222 44.136 132.974 48.808 130.478 52.904C127.982 57 124.654 60.232 120.494 62.6C116.334 64.968 111.726 66.152 106.67 66.152ZM106.67 54.632C109.486 54.632 111.95 53.96 114.062 52.616C116.238 51.272 117.934 49.416 119.15 47.048C120.43 44.616 121.07 41.896 121.07 38.888C121.07 35.816 120.43 33.128 119.15 30.824C117.934 28.456 116.238 26.6 114.062 25.256C111.95 23.848 109.486 23.144 106.67 23.144C103.79 23.144 101.262 23.848 99.0862 25.256C96.9102 26.6 95.1822 28.456 93.9022 30.824C92.6862 33.128 92.0782 35.816 92.0782 38.888C92.0782 41.896 92.6862 44.616 93.9022 47.048C95.1822 49.416 96.9102 51.272 99.0862 52.616C101.262 53.96 103.79 54.632 106.67 54.632Z" fill="white"/>
<path d="M145.247 65C141.774 65 138.959 62.1848 138.959 58.712V18.68C138.959 15.4193 141.602 12.776 144.863 12.776H148.377C149.697 12.776 150.767 13.8463 150.767 15.1666V22.6127C150.767 23.0884 150.134 23.2525 149.903 22.8366C149.842 22.7264 149.828 22.5952 149.867 22.4751C151.085 18.6722 152.953 16.0151 155.471 14.504C158.095 12.968 161.231 12.2 164.879 12.2H173.383C176.458 12.2 178.951 14.6929 178.951 17.768C178.951 20.8431 176.458 23.336 173.383 23.336H163.439C159.855 23.336 156.975 24.456 154.799 26.696C152.623 28.872 151.535 31.944 151.535 35.912V58.712C151.535 62.1848 148.72 65 145.247 65Z" fill="white"/>
<path d="M278.721 66.152C273.345 66.152 268.641 64.936 264.609 62.504C260.577 60.072 257.441 56.776 255.201 52.616C252.961 48.456 251.841 43.848 251.841 38.792C251.841 33.544 252.961 28.904 255.201 24.872C257.505 20.776 260.609 17.544 264.513 15.176C268.481 12.808 272.897 11.624 277.761 11.624C281.857 11.624 285.441 12.296 288.513 13.64C291.649 14.984 294.305 16.84 296.481 19.208C298.657 21.576 300.321 24.296 301.473 27.368C302.625 30.376 303.201 33.64 303.201 37.16C303.201 38.056 303.137 38.984 303.009 39.944C302.907 41.4716 301.51 42.44 299.979 42.44H267.009C264.358 42.44 262.209 40.291 262.209 37.64C262.209 34.9891 264.358 32.84 267.009 32.84H291.455C292.734 32.84 293.28 34.4657 292.261 35.2385C291.284 35.979 289.824 35.1014 289.81 33.8757C289.792 32.2998 289.52 30.8346 288.993 29.48C288.161 27.176 286.753 25.352 284.769 24.008C282.849 22.664 280.513 21.992 277.761 21.992C275.137 21.992 272.801 22.664 270.753 24.008C268.705 25.288 267.137 27.208 266.049 29.768C265.264 31.6813 264.855 33.9142 264.822 36.4667C264.802 38.0794 264.784 39.6969 264.833 41.309C264.902 43.543 265.339 45.584 266.145 47.432C267.297 49.864 268.961 51.752 271.137 53.096C273.377 54.44 275.937 55.112 278.817 55.112C281.697 55.112 284.129 54.504 286.113 53.288C286.473 53.0745 286.818 52.8481 287.15 52.6089C289.744 50.7402 293.157 49.4931 296.028 50.9011C298.876 52.2984 300.214 55.7599 298.133 58.155C297.573 58.7999 296.958 59.4176 296.289 60.008C294.113 61.928 291.521 63.432 288.513 64.52C285.569 65.608 282.305 66.152 278.721 66.152Z" fill="white"/>
<path d="M314.222 65C310.749 65 307.934 62.1848 307.934 58.712V18.68C307.934 15.4193 310.577 12.776 313.838 12.776H317.352C318.672 12.776 319.742 13.8463 319.742 15.1666V22.6127C319.742 23.0884 319.109 23.2525 318.878 22.8366C318.817 22.7264 318.803 22.5952 318.842 22.4751C320.06 18.6722 321.928 16.0151 324.446 14.504C327.07 12.968 330.206 12.2 333.854 12.2C335.551 12.2 336.926 13.5754 336.926 15.272V18.824C336.926 21.3159 334.906 23.336 332.414 23.336C328.83 23.336 325.95 24.456 323.774 26.696C321.598 28.872 320.51 31.944 320.51 35.912V58.712C320.51 62.1848 317.695 65 314.222 65Z" fill="white"/>
<path d="M334.485 65C330.985 65 328.149 62.1633 328.149 58.664V57.896C328.149 54.3968 330.985 51.56 334.485 51.56C337.984 51.56 340.821 54.3968 340.821 57.896V58.664C340.821 62.1633 337.984 65 334.485 65Z" fill="white"/>
<path d="M175.313 25.2C172.415 25.2 170.065 27.5493 170.065 30.4472V58.712C170.065 62.1848 172.881 65 176.353 65C179.826 65 182.641 62.1848 182.641 58.712V34.376C182.641 32.072 183.057 30.088 183.889 28.424C184.721 26.76 185.905 25.48 187.441 24.584C188.977 23.624 190.737 23.144 192.721 23.144C194.769 23.144 196.529 23.624 198.001 24.584C199.537 25.48 200.721 26.76 201.553 28.424C202.385 30.088 202.801 32.072 202.801 34.376V58.712C202.801 62.1848 205.617 65 209.089 65C212.562 65 215.377 62.1848 215.377 58.712V34.376C215.377 32.072 215.793 30.088 216.625 28.424C217.457 26.76 218.641 25.48 220.177 24.584C221.713 23.624 223.473 23.144 225.457 23.144C227.569 23.144 229.361 23.624 230.833 24.584C232.305 25.48 233.457 26.76 234.289 28.424C235.121 30.088 235.537 32.072 235.537 34.376V58.712C235.537 62.1848 238.353 65 241.825 65C245.298 65 248.113 62.1848 248.113 58.712V31.4C248.113 27.496 247.281 24.072 245.617 21.128C243.953 18.12 241.649 15.784 238.705 14.12C235.825 12.456 232.529 11.624 228.817 11.624C224.657 11.624 220.977 12.68 217.777 14.792C215.718 16.1102 213.989 17.866 212.593 20.0592C213.015 20.7875 213.374 21.554 213.671 22.3588C213.947 23.1062 213.4 23.8751 212.606 23.9395C211.666 24.0157 210.974 23.0849 211.384 22.2359C211.755 21.4679 212.158 20.7423 212.593 20.0592C211.451 18.0877 209.851 16.396 207.793 14.984C204.529 12.744 200.753 11.624 196.465 11.624C192.561 11.624 189.169 12.552 186.289 14.408C183.409 16.264 181.489 19.08 180.529 22.856C180.198 24.1593 179.104 25.2 177.759 25.2H175.313Z" fill="white"/>
<path d="M211.384 22.2359C210.974 23.0849 211.666 24.0157 212.606 23.9395C213.4 23.8751 213.947 23.1062 213.671 22.3588C213.374 21.554 213.015 20.7875 212.593 20.0592C212.158 20.7423 211.755 21.4679 211.384 22.2359Z" fill="white"/>
<path d="M70.5547 65.576C64.6667 65.576 60.0907 63.976 56.8267 60.776C53.6267 57.512 52.0267 52.936 52.0267 47.048V24.29C52.0267 24.1343 51.9004 24.008 51.7447 24.008C46.9166 24.008 43.0027 20.0941 43.0027 15.266V13.127C43.0027 12.9332 43.1598 12.776 43.3537 12.776H43.9627C46.5227 12.776 48.5067 12.104 49.9147 10.76C51.3227 9.41601 52.0267 7.46401 52.0267 4.90401V1.26501C52.0267 1.04796 52.2026 0.872009 52.4197 0.872009H53.0707C59.4396 0.872009 64.6027 6.03506 64.6027 12.404C64.6027 12.6095 64.7692 12.776 64.9747 12.776H70.9867C74.0883 12.776 76.6027 15.2904 76.6027 18.392C76.6027 21.4936 74.0883 24.008 70.9867 24.008H64.9777C64.7706 24.008 64.6027 24.1759 64.6027 24.383V46.376C64.6027 48.104 64.8907 49.576 65.4667 50.792C66.1067 52.008 67.0667 52.936 68.3467 53.576C69.6907 54.216 71.3867 54.536 73.4347 54.536C73.8827 54.536 74.3947 54.504 74.9707 54.44C75.9442 54.3427 76.7947 55.1037 76.7947 56.0821V61.904C76.7947 63.6805 75.4883 65.1878 73.7227 65.384C72.5707 65.512 71.5147 65.576 70.5547 65.576Z" fill="white"/>
</svg>
